<svg height="1200" width="1200" xmlns="http://www.w3.org/2000/svg"><path d="M0 0h1200v1200H0Z" fill="#256ae5"/><path d="m502.86 311.31 4.19 10.55 3.68 10.47 3.18 10.4 2.7 10.35 2.23 10.3 1.82 10.51 1.36 10.33.9 10.18.45 10.02.02 9.89-.43 10-.85 9.72-1.26 9.48-1.67 9.23-2.08 9-2.54 8.99-2.93 8.64-3.31 8.3-3.67 7.97-4.06 7.66-4.52 7.49-4.87 7.06-5.22 6.65-5.58 6.26-5.93 5.88-6.32 5.48-6.66 5.01-7.01 4.54-7.38 4.09-7.77 3.63-8.03 3.04-8.07 2.44-8.14 1.86-8.23 1.28-8.34.71-8.35.16-8.38-.37-8.4-.89-8.46-1.43-8.52-1.98-8.32-2.44-8.28-2.92-8.25-3.41-8.24-3.93-8.22-4.44-7.9-4.79-7.78-5.24-7.68-5.69-7.56-6.18-7.47-6.67-7.07-6.9-6.87-7.31-6.67-7.74-6.47-8.18-6.26-8.63-5.83-8.78-5.53-9.15-5.24-9.53-4.94-9.94-4.65-10.35-4.18-10.55-3.68-10.47-3.18-10.4-2.71-10.35-2.22-10.3-1.83-10.51-1.35-10.33-.9-10.18-.45-10.02-.02-9.89.42-10 .85-9.72 1.27-9.48 1.67-9.23 2.08-9 2.54-8.99 2.93-8.64 3.3-8.3 3.68-7.97 4.05-7.66 4.53-7.49 4.87-7.06 5.22-6.65 5.57-6.26 5.94-5.88 6.32-5.48 6.66-5.01 7.01-4.54 7.38-4.09 7.77-3.63 8.02-3.04 8.08-2.44 8.14-1.86 8.23-1.28 8.34-.71 8.35-.16 8.37.37 8.41.89 8.46 1.43 8.52 1.98 8.32 2.44 8.28 2.92 8.25 3.41 8.24 3.93 8.22 4.44 7.9 4.79 7.78 5.24 7.67 5.69 7.57 6.18 7.47 6.67 7.07 6.9 6.87 7.31 6.67 7.74 6.46 8.18 6.27 8.63 5.83 8.78 5.53 9.15 5.24 9.53 4.94 9.94 4.64 10.35ZM982.8 432C945 521.56 852.6 571.45 760.65 559.37c-74.53-59.02-100.52-160.51-63.53-248.08C735 221.72 827.33 171.83 919.27 183.91c74.52 59.03 100.51 160.51 63.53 248.09Z" fill="#c95506"/><path d="M953.15 366.76C915.31 456.34 823 506.23 731 494.15a210.278 210.278 0 0 1-43.64-47 210.521 210.521 0 0 1 9.76-135.88C735 221.72 827.33 171.83 919.27 183.91a210.001 210.001 0 0 1 43.63 47c11.91 45.11 8.48 92.9-9.75 135.85Z" fill="#e5630a"/><path d="M752 308.64c-4.24 0-8.09-2.44-9.92-6.26a11.015 11.015 0 0 1 1.37-11.65 222.513 222.513 0 0 1 135.74-79.54c5.99-1.02 11.68 3 12.7 8.99 1.02 5.99-3 11.68-8.99 12.7a200.546 200.546 0 0 0-122.34 71.67 11 11 0 0 1-8.56 4.09Z" fill="#ed975d"/><path d="M246.85 366.76c37.84 89.58 130.2 139.47 222.15 127.39a210.278 210.278 0 0 0 43.64-47c11.9-45.12 8.46-92.92-9.76-135.88C465 221.72 372.67 171.83 280.73 183.91a210.001 210.001 0 0 0-43.63 47 210.298 210.298 0 0 0 9.75 135.85Z" fill="#e5630a"/><path d="M600 285.41c196.94 0 356.6 159.65 356.61 356.59v558H243.39V642C243.4 445.06 403.06 285.41 600 285.41Z" fill="#ed851d"/><path d="M863.68 642v558H243.39V642c0-181.19 135.15-330.83 310.15-353.6C728.53 311.18 863.68 460.82 863.68 642Z" fill="#fa9c2a"/><path d="m460.5 389.3 88.98 27.63 4.13 1.61 3.73 2.04 3.36 2.49 3.01 2.9 2.56 3.2 2.15 3.52 1.69 3.76 1.18 3.93.69 4.13.14 4.17-.43 4.23-1.01 4.31-1.61 4.13-2.04 3.73-2.49 3.36-2.9 3.01-3.2 2.57-3.52 2.14-3.76 1.69-3.93 1.18-4.13.69-4.17.14-4.23-.42-4.31-1.02-88.98-27.63-4.13-1.6-3.73-2.05-3.36-2.48-3.01-2.91-2.57-3.19-2.14-3.52-1.69-3.77-1.18-3.93-.69-4.12-.14-4.18.42-4.23 1.02-4.31 1.61-4.13 2.04-3.73 2.48-3.35 2.91-3.02 3.2-2.56 3.52-2.15 3.76-1.69 3.93-1.18 4.12-.68 4.18-.15 4.23.43 4.31 1.01ZM758.56 450.81l-88.98 27.62-4.32 1.02-4.22.43-4.18-.15-4.13-.68-3.92-1.18-3.77-1.69-3.52-2.15-3.2-2.56-2.9-3.02-2.48-3.36-2.05-3.72-1.6-4.13-1.02-4.32-.43-4.22.15-4.18.69-4.12 1.18-3.93 1.68-3.77 2.15-3.52 2.57-3.2 3.01-2.9 3.36-2.48 3.72-2.05 4.14-1.6 88.97-27.63 4.32-1.02 4.22-.42 4.18.14 4.13.69 3.92 1.18 3.77 1.69 3.52 2.14 3.2 2.57 2.9 3.01 2.49 3.36 2.04 3.73 1.6 4.13 1.02 4.31.43 4.23-.15 4.17-.68 4.13-1.19 3.93-1.68 3.76-2.15 3.52-2.57 3.2-3.01 2.9-3.36 2.49-3.72 2.04-4.13 1.61ZM539.24 717.62c-.3 24.66 12.69 47.57 33.99 59.99a68.501 68.501 0 0 0 68.95 0c21.3-12.42 34.29-35.33 33.99-59.99ZM677.43 806.91v177.16c-.45 36.77-30.38 66.34-67.16 66.34-36.77 0-66.7-29.57-67.15-66.34V821.88a38.614 38.614 0 0 0 28.43 12.51h2c16.25-.95 30.2-11.88 35-27.43H612c4.76 15.58 18.73 26.54 35 27.43.67 0 1.36-10.91 2-10.91 11.2-.05 21.35-8.88 28.43-16.57Z" fill="#ed851d"/><path d="M346.54 518.2c-6.4 0-12.33-3.41-15.55-8.94a18.012 18.012 0 0 1-.1-17.94 309.072 309.072 0 0 1 170.44-140.87c9.42-3.17 19.63 1.89 22.8 11.32 3.18 9.42-1.89 19.63-11.31 22.8a273.064 273.064 0 0 0-150.6 124.49 18.02 18.02 0 0 1-15.68 9.14ZM318.31 1181.9c-9.94 0-18-8.06-18-18V672.44c0-9.94 8.06-18 18-18s18 8.06 18 18v491.46c0 9.94-8.06 18-18 18ZM318.31 623.13c-9.94 0-18-8.06-18-18v-2.26c0-9.94 8.06-18 18-18s18 8.06 18 18v2.26c0 9.94-8.06 18-18 18Z" fill="#ffb96c"/><path d="M839.96 584.75c0 64.75-52.49 117.24-117.24 117.24S605.48 649.5 605.48 584.75s52.49-117.24 117.24-117.24S839.96 520 839.96 584.75ZM594.52 584.75c0 64.75-52.49 117.24-117.24 117.24S360.04 649.5 360.04 584.75s52.49-117.24 117.24-117.24S594.52 520 594.52 584.75Z" fill="#fff"/><path d="M507.08 600c0 16.46-13.34 29.8-29.8 29.8s-29.8-13.34-29.8-29.8 13.34-29.8 29.8-29.8 29.8 13.34 29.8 29.8ZM752.52 600c0 16.46-13.34 29.8-29.8 29.8s-29.8-13.34-29.8-29.8 13.34-29.8 29.8-29.8 29.8 13.34 29.8 29.8ZM535.28 717.62c0 35.74 28.98 64.72 64.72 64.72 35.74 0 64.72-28.98 64.72-64.72Z" fill="#282828"/><path d="m455.61 376.95 88.98 27.63 4.13 1.6 3.73 2.05 3.36 2.48 3.01 2.9 2.57 3.2 2.14 3.52 1.69 3.77 1.18 3.92.69 4.13.14 4.18-.42 4.22-1.02 4.32-1.61 4.13-2.04 3.72-2.48 3.36-2.91 3.01-3.2 2.57-3.52 2.15-3.76 1.68-3.93 1.19-4.12.68-4.18.15-4.23-.43-4.31-1.02-88.98-27.63-4.13-1.6-3.73-2.04-3.35-2.49-3.02-2.9-2.56-3.2-2.15-3.52-1.69-3.76-1.18-3.93-.68-4.13-.15-4.17.43-4.23 1.01-4.31 1.61-4.14 2.04-3.72 2.49-3.36 2.9-3.01 3.2-2.57 3.52-2.15 3.76-1.68 3.93-1.18 4.13-.69 4.17-.14 4.23.42 4.31 1.02ZM763.46 438.43l-89 27.63a32.162 32.162 0 0 1-31.66-6.91 32.181 32.181 0 0 1-9.61-30.94 32.182 32.182 0 0 1 22.18-23.63l89-27.63c16.87-4.96 34.61 4.55 39.82 21.34 5.21 16.8-4.02 34.67-20.74 40.14Z" fill="#c95506"/><path d="m748.78 428.27-89 27.62a32.04 32.04 0 0 1-19.82-.23 32.195 32.195 0 0 1-5.86-29.63 32.196 32.196 0 0 1 21.27-21.45l89-27.63c6.46-2.03 13.4-1.94 19.81.24a32.199 32.199 0 0 1 5.87 29.63 32.21 32.21 0 0 1-21.28 21.45ZM451.22 428.27l89 27.62a32.04 32.04 0 0 0 19.82-.23 32.195 32.195 0 0 0 5.86-29.63 32.196 32.196 0 0 0-21.27-21.45l-89-27.63a31.864 31.864 0 0 0-19.81.24 32.199 32.199 0 0 0-5.87 29.63 32.21 32.21 0 0 0 21.28 21.45Z" fill="#e5630a"/><path d="M667.15 814v162.16c0 37.09-30.06 67.15-67.15 67.15s-67.15-30.06-67.15-67.15V814a38.585 38.585 0 0 0 28.42 12.52c.69 0 1.36 0 2.05-.06 16.26-.92 30.22-11.87 35-27.43h3.38c4.76 15.58 18.73 26.54 35 27.43.67 0 1.36.06 2 .06 10.82 0 21.14-4.54 28.45-12.52Z" fill="#ec2862"/><path d="M638.7 831.49c-.87 0-1.63 0-2.32-.07-18.36-1.03-34.13-13.41-39.48-31-.2-.65-.41-1.39-.64-2.29-.34-1.32-.61-2.65-.8-4-.31-2.1-.46-4.22-.46-6.35v-47.19c0-2.76 2.24-5 5-5s5 2.24 5 5v47.18c0 1.63.12 3.26.35 4.87.14 1.01.34 2.01.59 3 .17.69.33 1.28.52 1.86a33.82 33.82 0 0 0 30.48 23.94h1.76c18.59-.09 33.64-15.13 33.73-33.72 0-2.76 2.24-5 5-5s5 2.24 5 5c-.09 24.11-19.62 43.63-43.73 43.72Z" fill="#282828"/><path d="M561.27 831.49c-24.11-.08-43.63-19.61-43.7-43.72 0-2.76 2.24-5 5-5s5 2.24 5 5c-.02 16.73 12.23 30.94 28.78 33.39 16.54 2.45 32.38-7.6 37.22-23.61.2-.63.36-1.22.5-1.82.25-.99.45-1.99.59-3v-.14c.25-1.59.37-3.19.36-4.8v-47.2c0-2.76 2.24-5 5-5s5 2.24 5 5v47.18c.01 2.11-.15 4.22-.48 6.31a35.03 35.03 0 0 1-.78 4.06c-.23.92-.44 1.66-.65 2.36-5.41 17.56-21.17 29.89-39.51 30.93-.71.04-1.45.06-2.33.06Z" fill="#282828"/><path d="M600 971.17a7.288 7.288 0 0 1-7.3-7.29V856c0-4.03 3.27-7.3 7.3-7.3 4.03 0 7.3 3.27 7.3 7.3v107.88a7.288 7.288 0 0 1-7.3 7.29Z" fill="#b50f46"/><path d="M789.68 1110.79c-9.94 0-18-8.06-18-18V885c0-9.94 8.06-18 18-18s18 8.06 18 18v207.81c-.01 9.93-8.07 17.98-18 17.98ZM789.68 1181.9c-9.94 0-18-8.06-18-18v-10.12c0-9.94 8.06-18 18-18s18 8.06 18 18v10.12c0 9.94-8.06 18-18 18Z" fill="#ed851d"/><path d="M538.49 427.5c-.62 0-1.23-.1-1.82-.28l-62.83-20c-2.1-.61-3.7-2.3-4.18-4.43-.49-2.13.22-4.35 1.84-5.81a6.017 6.017 0 0 1 5.98-1.19l62.83 20c2.82.89 4.57 3.71 4.12 6.64a6.01 6.01 0 0 1-5.94 5.08ZM455.18 391.82c0 3.94-3.2 7.14-7.14 7.14-3.94 0-7.14-3.2-7.14-7.14 0-3.94 3.2-7.14 7.14-7.14 3.94 0 7.14 3.2 7.14 7.14ZM661.5 427.5a6 6 0 0 1-1.81-11.72l62.83-20c2.06-.72 4.35-.26 5.98 1.19a6.007 6.007 0 0 1 1.84 5.81 5.983 5.983 0 0 1-4.18 4.43l-62.83 20c-.59.19-1.21.29-1.83.29ZM759.1 391.82c0 3.94-3.2 7.14-7.14 7.14-3.94 0-7.14-3.2-7.14-7.14 0-3.94 3.2-7.14 7.14-7.14 3.94 0 7.14 3.2 7.14 7.14ZM448.05 308.64a11 11 0 0 1-8.56-4.09 200.6 200.6 0 0 0-122.34-71.67c-5.99-1.02-10.01-6.71-8.99-12.7 1.02-5.99 6.71-10.01 12.7-8.99a222.56 222.56 0 0 1 135.74 79.54c2.66 3.3 3.19 7.83 1.37 11.65a11.001 11.001 0 0 1-9.92 6.26Z" fill="#ed975d"/><path d="M408.5 1007.08c-12.15 0-22-9.85-22-22V851.25c0-12.15 9.85-22 22-22s22 9.85 22 22v133.83c0 12.15-9.85 22-22 22ZM477.28 1121.85c-12.15 0-22-9.85-22-22v-48.63c0-12.15 9.85-22 22-22s22 9.85 22 22v48.63c0 12.15-9.85 22-22 22ZM543.12 1163.36c-12.15 0-22-9.85-22-22v-8.47c0-12.15 9.85-22 22-22s22 9.85 22 22v8.47c0 12.15-9.85 22-22 22ZM477.28 950.78c-12.15 0-22-9.85-22-22v-15.24c0-12.15 9.85-22 22-22s22 9.85 22 22v15.24c0 12.15-9.85 22-22 22Z" fill="#ffb96c"/></svg>